<?xml version="1.0" standalone="no"?>
<!DOCTYPE svg PUBLIC "-//W3C//DTD SVG 20010904//EN"
 "http://www.w3.org/TR/2001/REC-SVG-20010904/DTD/svg10.dtd">
<svg version="1.0" xmlns="http://www.w3.org/2000/svg"
 width="200.000000pt" height="200.000000pt" viewBox="0 0 200.000000 200.000000"
 preserveAspectRatio="xMidYMid meet">
<metadata>
Created by potrace 1.14, written by Peter Selinger 2001-2017
</metadata>
<g transform="translate(0.000000,200.000000) scale(0.100000,-0.100000)"
fill="#000000" stroke="none">
<path d="M755 1989 c-123 -23 -233 -92 -321 -201 -26 -33 -65 -119 -82 -183
-61 -230 51 -485 258 -590 52 -26 109 -45 148 -50 43 -6 135 -7 157 -2 66 16
86 23 140 49 117 56 232 193 262 313 27 109 27 228 -2 310 -46 138 -141 248
-265 308 -94 46 -206 63 -295 46z"/>
<path d="M1630 1346 c0 -8 7 -16 15 -20 10 -4 15 1 15 14 0 11 -7 20 -15 20
-8 0 -15 -6 -15 -14z"/>
<path d="M1663 1293 c-7 -2 -13 -10 -13 -17 0 -6 -9 -19 -20 -29 -11 -9 -20
-28 -20 -42 0 -14 -6 -25 -12 -26 -44 -3 -61 -7 -74 -20 -23 -24 -25 -79 -4
-124 37 -76 31 -106 -50 -260 -76 -146 -100 -186 -100 -170 0 6 -17 30 -38 54
-152 182 -287 261 -453 267 -156 6 -273 -48 -414 -190 -111 -112 -236 -317
-303 -496 -11 -30 -23 -64 -28 -75 -4 -11 -8 -24 -10 -30 -2 -5 -12 -38 -23
-72 l-19 -63 779 0 c428 0 779 3 779 8 0 4 -5 24 -10 44 -6 21 -10 39 -9 40 1
2 -4 14 -11 28 l-13 25 24 -18 c54 -38 87 -51 141 -53 137 -6 251 118 234 256
-3 27 -14 65 -23 84 -15 33 -15 37 0 54 14 15 19 49 16 102 0 8 2 27 5 43 5
21 1 33 -18 52 -14 14 -31 25 -39 25 -7 0 -23 19 -36 43 -88 168 -94 184 -94
224 0 28 6 50 18 63 14 15 19 36 19 72 0 61 -24 87 -78 84 -32 -1 -35 1 -40
34 -3 19 -7 42 -7 50 -3 32 -26 46 -56 33z m-109 -905 c-4 -13 -8 -32 -10 -43
-1 -11 -3 -24 -4 -30 0 -5 -9 6 -19 25 -20 40 -12 70 20 70 17 0 19 -4 13 -22z"/>
</g>
</svg>
